<?xml version="1.0" encoding="utf-8"?>
<!-- Generator: Adobe Illustrator 24.1.3, SVG Export Plug-In . SVG Version: 6.00 Build 0)  -->
<svg version="1.1" id="Capa_1" xmlns="http://www.w3.org/2000/svg" xmlns:xlink="http://www.w3.org/1999/xlink" x="0px" y="0px"
	 viewBox="0 0 352.2 288" style="enable-background:new 0 0 352.2 288;" xml:space="preserve">
<style type="text/css">
	.st0{stroke:#000000;stroke-width:3;stroke-miterlimit:10;}
</style>
<g>
	<path class="st0" d="M174.2,24.6c5.7,2.1,7.6,6.2,7.6,12.1c0.1,35.3,0.4,70.7,0.6,106c0,2.1-0.5,4.3-1.3,6.3
		c-4.4,10.1-8.9,20.1-13.4,30.2c-0.2,0.4-0.3,0.7-0.5,1.1c-0.7,1.7-1.9,2.9-3.9,2.9c-2,0-3.2-1.1-3.9-2.8
		c-4.9-10.9-9.8-21.8-14.6-32.8c-0.5-1.2-0.6-2.6-0.6-3.9c0-31.3-0.1-62.7,0-94c0-5.4,0.3-10.8,0.7-16.3c0.3-4.7,3.3-7.3,7.4-8.9
		C159.6,24.6,166.9,24.6,174.2,24.6z M174.4,141.2c0-0.9,0-1.6,0-2.3c0-29.5,0-59.1,0-88.6c0-0.5,0.2-1.2-0.1-1.6
		c-0.5-0.7-1.1-1.6-1.8-1.7c-1.7-0.2-3.4-0.1-5.3-0.1c0,1.2,0,2.1,0,3c0,16.3,0,32.6,0,49c0,0.8,0,1.6,0,2.3c-0.2,2-1.7,3.5-3.7,3.6
		c-2,0.1-3.8-1.3-4.2-3.3c-0.1-0.8-0.1-1.5-0.1-2.3c0-16.5,0-33,0-49.4c0-0.9,0-1.8,0-2.9c-1.2,0-2,0-2.9,0c-4.2,0-4.2,0-4.2,4.3
		c0,29,0,58,0,87c0,1,0,2,0,3C159.7,141.2,166.9,141.2,174.4,141.2z M172.2,149.5c-6.1,0-11.7,0-17.8,0c3,6.7,5.8,13.1,8.9,19.9
		C166.4,162.6,169.2,156.2,172.2,149.5z M173.8,38.7c0-1,0-1.8,0-2.7c0-3.3-0.2-3.5-3.4-3.5c-4.1,0-8.2,0-12.3,0
		c-4.8,0-5.6-1-5.1,5.9c0,0.1,0.1,0.1,0.2,0.3C159.8,38.7,166.6,38.7,173.8,38.7z"/>
	<path class="st0" d="M85.1,247.3c-4.7-0.4-6.3-1.5-6.4-4c-0.1-2.5,1.4-3.6,6.3-4.4c0-7.3,0-14.7,0-22.3c-2.9-0.1-6.2-0.1-6.3-4.3
		c0-2.5,1.7-3.5,6.2-4c0-7.4,0-14.8,0-22.2c-4.8-0.8-6.2-1.7-6.3-4.2c-0.1-2.5,1.3-3.4,6.3-4.4c0-7.3,0-14.7,0-22
		c-5-0.9-6.4-1.9-6.3-4.4c0-2.4,1.4-3.4,6.3-4.2c0-7.4,0-14.8,0-22.2c-4.8-0.7-6.4-1.8-6.3-4.4c0.1-2.6,1.8-3.6,6.2-4
		c0-7.4,0-14.8,0-22.5c-3,0-6.3-0.2-6.2-4.5c0.1-2.4,1.8-3.4,6.2-3.7c0-7.4,0-14.8,0-22.2c-4.9-0.9-6.3-1.9-6.3-4.4
		c0.1-2.5,1.5-3.4,6.4-4.2c0-3.6,0-7.2,0-10.9c0-3.6,1.3-5,4.8-5c13.1,0,26.1,0,39.2,0c3.6,0,5.7,2.6,4.5,5.5
		c-0.8,1.9-2.4,2.5-4.3,2.5c-4,0-7.9,0-11.9,0c-0.8,0-1.5,0.1-2.4,0.1c0,69.5,0,138.8,0,208.5c0.8,0,1.6,0,2.4,0
		c47.3,0,94.7,0,142,0c4.6,0,6.1-1.5,6.1-6.2c0-65.5,0-130.9,0-196.4c0-4.6-1.4-6-6-6c-20.4,0-40.7,0-61.1,0c-1,0-2,0-3-0.3
		c-2-0.6-2.9-2.1-2.7-4.1c0.2-1.9,1.3-3.1,3.2-3.5c0.8-0.2,1.7-0.1,2.6-0.1c20.4,0,40.7,0,61.1,0c9,0,13.9,5,13.9,14.1
		c0,65.5,0,130.9,0,196.4c0,9.1-5,14.1-14.1,14.1c-56.1,0-112.3,0-168.4,0c-4.9,0-6-1-6-6C85.1,254.1,85.1,250.7,85.1,247.3z
		 M106.7,255.3c0-69.5,0-138.8,0-208.4c-3.6,0-7.1,0-10.6,0c-0.9,0-1.8,0-2.9,0c0,2.8,0,5.4,0,8c4.5,0.4,6.2,1.4,6.2,4
		c0,4.1-3.2,4.3-6.2,4.4c0,7.6,0,14.9,0,22.3c4.7,0.6,6.3,1.7,6.2,4.2c0,0.9-0.3,2.1-0.9,2.5c-1.6,0.9-3.4,1.5-5.3,2.2
		c0,7.1,0,14.5,0,21.9c4.6,0.5,6.2,1.5,6.2,3.9c0,0.9-0.2,2.2-0.8,2.5c-1.6,1-3.5,1.6-5.4,2.4c0,7,0,14.4,0,21.8
		c4.6,0.5,6.3,1.7,6.2,4.2c0,2.5-1.6,3.6-6.3,4.2c0,7.4,0,14.8,0,22.2c4.7,0.6,6.4,1.7,6.2,4.2c-0.2,3.9-3.3,4.1-6.2,4.2
		c0,7.6,0,15,0,22.4c4.4,0.3,6.1,1.4,6.2,4c0.1,2.4-1.3,3.4-6.3,4.4c0,7.4,0,14.8,0,22.2c4.6,0.5,6.2,1.4,6.2,3.9
		c0,0.9-0.2,2.2-0.8,2.5c-1.6,1-3.5,1.6-5.4,2.4c0,2.2,0,4.8,0,7.4C97.8,255.3,102.2,255.3,106.7,255.3z"/>
</g>
</svg>
