<?xml version="1.0" encoding="utf-8"?>
<!-- Generator: Adobe Illustrator 24.1.3, SVG Export Plug-In . SVG Version: 6.00 Build 0)  -->
<svg version="1.1" id="Capa_1" xmlns="http://www.w3.org/2000/svg" xmlns:xlink="http://www.w3.org/1999/xlink" x="0px" y="0px"
	 viewBox="0 0 352.2 288" style="enable-background:new 0 0 352.2 288;" xml:space="preserve">
<style type="text/css">
	.st0{stroke:#000000;stroke-width:4;stroke-miterlimit:10;}
</style>
<g>
	<path class="st0" d="M245.3,23.5c1.7,1.2,2.4,2.9,2.3,5c-0.1,4.1,0,8.1,0,12.5c3.6-1.2,7-2.4,10.4-3.4c2.5-0.8,5-1.5,7.4-2.2
		c2.1-0.6,3.7-0.1,5.3,1.5c3.5,3.5,7.1,6.9,10.8,10.5c0.6-0.3,1.5-0.8,2.3-1.2c5.4-2.6,11.4,0.8,11.9,6.8c0.1,0.9,0.1,1.7,0.1,2.6
		c0,34.2,0,68.4,0,102.6c0,0.9,0,1.7-0.1,2.6c-0.3,2-1.5,3.1-3.5,3.1c-1.9,0-3.1-1.1-3.3-3c-0.1-1-0.1-2-0.1-3.1
		c0-33.9,0-67.8,0-101.7c0-0.8,0-1.6-0.1-2.3c-0.2-1.2-0.8-1.7-2-1.1c-0.6,0.3-1.2,0.7-1.9,1c-28.7,16.2-57.5,32.4-86.3,48.5
		c-2.5,1.4-3.3,2.9-3.3,5.7c0.1,47.4,0.1,94.8,0.1,142.1c0,0.6,0,1.3,0,1.9c0.1,2.5,0.7,2.9,2.8,1.7c6.9-3.8,13.8-7.7,20.7-11.6
		c22.5-12.6,44.9-25.3,67.4-37.9c1.8-1,2.6-2.1,2.5-4.2c-0.1-5.4-0.1-10.8,0-16.2c0-2.6,1.4-4.1,3.6-4c2,0,3.4,1.3,3.4,3.4
		c0.1,6.5,0.1,13,0,19.5c-0.1,3.4-2.1,5.5-5,7.1c-13,7.3-26,14.6-38.9,21.9c-16.6,9.3-33.2,18.7-49.8,28c-2.2,1.3-4.5,2.3-7.1,1.7
		c-0.4-0.1-1.2,0.3-1.5,0.7c-1.9,2-4.2,2.8-7,2.8c-6.9,0-13.8,0-20.7,0c-2.7,0-5-0.8-7-2.8c-0.4-0.4-1.1-0.5-1.8-0.7
		c-2.1-0.5-4.5-0.4-6.3-1.5c-30-16.7-59.8-33.6-89.8-50.4c-3.1-1.7-4.6-4.3-4.7-7.9c0-2.9,0-5.8,0-8.7c0-45.9,0-91.8,0-137.7
		c0-5.5,2.6-9.3,7.2-9.6c2.4-0.1,4.9,1,7.6,1.5c2.9-2.8,6.3-5.9,9.5-9.3c2.1-2.3,4.2-3,7.3-2c5.4,1.8,10.9,3.4,16.7,5.2
		c0-4.1,0.1-8.1,0-12.1c-0.1-2.2,0.4-4,2.3-5.3c0.8,0,1.6,0,2.4,0c3.1,1.4,6.3,2.7,9.4,4.2c22.1,10.6,40.1,25.8,51.8,47.7
		c2.1,3.8,3.7,7.8,5.7,12c0.2-0.5,0.4-0.8,0.5-1.1c9.1-23.1,24.9-40.3,46.1-52.7c6.5-3.8,13.4-6.7,20.1-10
		C243.7,23.5,244.5,23.5,245.3,23.5z M156.8,178.9c0-24.1,0-48.2,0-72.2c0-2.1-0.6-3.2-2.5-4.2c-24.9-13.9-49.7-27.9-74.6-41.9
		c-4.5-2.5-9-5.1-13.5-7.6c-2.3-1.3-2.8-1-2.9,1.7c0,0.2,0,0.5,0,0.7c0,48.1,0,96.1,0,144.2c0,2.1,0.7,3.2,2.5,4.2
		c29.2,16.3,58.3,32.8,87.5,49.2c2.9,1.6,3.4,1.3,3.4-2.1C156.8,226.9,156.8,202.9,156.8,178.9z M77.1,50.9c1.2,0.7,2,1.2,2.7,1.6
		c25.6,14.4,51.3,28.7,76.8,43.3c4.4,2.5,8.8,2.8,13.7,2.3c-0.4-0.7-0.6-1.2-1-1.7c-4.3-5.1-8.3-10.5-12.9-15.2
		c-4.4-4.4-9.5-8.2-14.3-12.2c-2-1.7-2.5-3.5-1.3-5.2c1.3-1.9,3.2-2.1,5.5-0.4c1,0.7,1.9,1.4,2.8,2.1c4.9,4.1,9.7,8.3,14.9,12.8
		c-12.1-21.6-30-36-52.4-45.9c0,3.5,0.1,6.7,0,9.8c0,1.4,0.4,2.1,1.7,2.6c4.2,1.9,8.4,3.9,12.5,6c1.9,1,2.4,2.8,1.6,4.6
		c-0.9,1.9-2.7,2.5-4.7,1.7c-0.8-0.3-1.6-0.7-2.3-1.1C110,50.5,99.1,46.2,87.9,43c-0.8-0.2-2-0.3-2.5,0.1
		C82.6,45.5,80,48.1,77.1,50.9z M164,137.5c0,29.4,0,58.5,0,87.7c8.2,0,16.1,0,24.2,0c0-29.3,0-58.5,0-87.7
		C180.1,137.5,172.1,137.5,164,137.5z M181.6,97.9c6.2,1.4,11-0.3,15.8-3.1c19.8-11.4,39.7-22.4,59.6-33.6
		c5.9-3.3,11.7-6.6,18.3-10.3c-2.7-2.5-5.2-4.6-7.5-7c-1.2-1.2-2.2-1.4-3.7-0.9c-8.2,3.1-16.6,5.7-24.6,9.2
		c-18.3,8-34.7,18.8-48.2,33.7C187.9,89.6,184.9,93.7,181.6,97.9z M240.5,32.3c-22.4,10-40.3,24.3-52,45.7c3.6-3,6.9-6.2,10.5-9.2
		c12-9.9,25.3-17.7,39.4-24c0.8-0.4,2-1.3,2-2.1C240.6,39.4,240.5,36.1,240.5,32.3z M163.8,114.5c8.4,0,16.4,0,24.6,0
		c0-2.6,0.1-5-0.1-7.4c0-0.6-1-1.6-1.6-1.6c-7-0.1-14.1-0.1-21.1,0c-0.6,0-1.6,1-1.7,1.5C163.7,109.4,163.8,111.9,163.8,114.5z
		 M188.4,248.2c-8.4,0-16.4,0-24.6,0c0,2.6,0,5,0,7.4c0,1.3,0.6,1.8,1.8,1.8c7,0,13.9,0,20.9,0c1.3,0,1.9-0.5,1.8-1.8
		C188.4,253.2,188.4,250.8,188.4,248.2z M163.9,121.9c0,2.8,0,5.5,0,8.3c8.1,0,16.2,0,24.3,0c0-2.8,0-5.5,0-8.3
		C180.1,121.9,172.1,121.9,163.9,121.9z M163.9,240.8c8.3,0,16.3,0,24.3,0c0-2.9,0-5.6,0-8.2c-8.2,0-16.2,0-24.3,0
		C163.9,235.4,163.9,238,163.9,240.8z"/>
	<path class="st0" d="M205.7,137.2c0-3.4,0.1-6.7,0-10.1c-0.1-2.3,0.8-3.8,2.8-4.9c17.2-9.8,34.4-19.6,51.6-29.5
		c4.2-2.4,8.4-4.8,12.7-7.2c3.2-1.8,5.9-0.3,5.9,3.4c0.1,7.1,0,14.1,0,21.2c0,2.4-1.3,3.7-3.2,4.7c-18.4,10.5-36.7,21-55.1,31.5
		c-2.9,1.7-5.8,3.4-8.8,5c-3.4,1.9-5.9,0.3-6-3.5C205.7,144.2,205.7,140.7,205.7,137.2z M212.8,142.5c1.7-0.9,2.9-1.6,4.1-2.3
		c17.2-9.8,34.4-19.7,51.6-29.4c2.4-1.3,3.3-2.7,3.1-5.4c-0.2-3.5-0.1-7.1-0.1-10.6c-0.5,0-0.6,0-0.6,0
		c-19.1,10.9-38.1,21.7-57.1,32.6c-0.5,0.3-1,1-1,1.6C212.7,133.3,212.8,137.7,212.8,142.5z"/>
	<path class="st0" d="M179.6,181.4c0,6.4,0,12.8,0,19.3c0,0.9,0,1.7-0.2,2.6c-0.3,1.8-1.6,2.8-3.3,2.8c-1.9,0-3.1-1-3.5-2.9
		c-0.1-0.7-0.1-1.4-0.1-2.1c0-13.2,0-26.3,0-39.5c0-0.6,0-1.3,0.1-1.9c0.3-1.9,1.5-3,3.4-3c2,0,3.2,1.1,3.5,3.1
		c0.1,0.8,0.1,1.6,0.1,2.3C179.6,168.6,179.6,175,179.6,181.4z"/>
</g>
</svg>
