<?xml version="1.0" encoding="utf-8"?>
<!-- Generator: Adobe Illustrator 24.1.3, SVG Export Plug-In . SVG Version: 6.00 Build 0)  -->
<svg version="1.1" id="Capa_1" xmlns="http://www.w3.org/2000/svg" xmlns:xlink="http://www.w3.org/1999/xlink" x="0px" y="0px"
	 viewBox="0 0 352.2 288" style="enable-background:new 0 0 352.2 288;" xml:space="preserve">
<style type="text/css">
	.st0{stroke:#000000;stroke-width:3;stroke-miterlimit:10;}
</style>
<g>
	<path class="st0" d="M298.5,87.9c-1.2,2.2-3,3-5.5,2.9c-6.7-0.1-13.4,0-20.1,0c-4.5,0-6.2-2.9-4-6.8c1.7-3.1,1.2-6.2-1.3-8.1
		c-2.3-1.8-5.4-1.8-7.7,0.1c-2.3,2-2.8,5-1.1,8c2.1,3.9,0.4,6.8-4,6.8c-5.6,0-11.1,0-16.7,0c-5.5,0-8.8-3.3-8.8-8.7
		c0-5.7,0-11.3,0-17c0-4.3,3-6,6.7-3.9c3.1,1.7,6.2,1.2,8.2-1.2c1.8-2.2,1.8-5.3,0.1-7.5c-1.9-2.5-5.1-3-8.2-1.4
		c-4.1,2.1-6.9,0.4-6.8-4.2c0.1-2.1-0.6-3.3-2.4-4.3c-17.4-10.4-36.2-14.4-56.3-12.3c-13.6,1.4-27.1,3.5-40.4,7
		c-8.7,2.3-17.1,5.7-24.1,11.6C95.6,57.8,89,69.2,85.5,82.5c-2,7.6-4.1,15-7.4,22.1c-2.2,4.6-1.7,5.2,2.1,8.8
		c1.8,1.7,3.5,3.7,4.7,5.9c1.7,3,1.3,6.2-0.2,9.4c-5.4,11.2-11.9,21.7-19.6,31.6c-3.9,5.1-4.5,4.6,1.8,8.3c1.2,0.7,2.5,1.3,3.8,2
		c6.4,3.8,8.3,9.7,5.4,16.5c-0.8,1.7-1.7,3.4-2.7,5.3c1.3,1,2.6,2,3.9,3.1c3.1,2.4,3.4,4,1.3,7.3c-0.3,0.5-0.6,1.1-0.9,1.6
		c0.2,0.3,0.2,0.4,0.3,0.5c7.5,4.3,9.4,8.6,7.5,17c-0.8,3.5-0.6,6.9,0.6,10.3c1.5,4.1,4.9,6.1,9,4.9c12.9-3.8,25.7-7.8,38.5-11.8
		c6.2-2,12.4-4.1,18.4-6.5c2.9-1.1,5.8-2.6,8.5-4.3c3.6-2.3,6.3-5.3,6.5-9.9c0.1-2.4,2-3.7,4.3-3.5c2.2,0.2,3.7,1.8,3.7,4.2
		c0,4.4-1.6,8.2-4.6,11.5c-4.9,5.3-11.2,8.2-17.8,10.7c-4.2,1.5-8.4,2.9-13,4.5c6.7,7.7,11.6,16.3,14.2,25.8c30.8,0,61.3,0,92.4,0
		c-7-11.2-10.1-23.2-12.3-35.6c-2.2-12.4-2.5-24.8,1-37.6c-1.2,0-2.1,0-3,0c-27.8,0-55.6,0-83.3,0c-6.6,0-11.2-3.3-12.7-9
		c-0.4-1.4-0.4-2.8-0.4-4.2c0-34.6,0-69.2,0-103.9c0-8.3,5-13.3,13.2-13.3c16.9,0,33.7,0,50.6,0c4,0,5.4,1.4,5.4,5.5
		c0,4.9,0,9.8,0,14.9c5.2-0.3,9.5,1.1,12.8,4.9c2.4,2.8,3.6,6,3.5,9.7c-0.2,8.2-6,13.3-16.1,14c0,3.9,0,7.7,0,11.8c4,0,8,0,12,0
		c0.7-10.1,6.1-16.2,14.5-16.1c6.3,0.1,14.5,4.9,14.1,16.3c1.8,0,3.6,0,5.4,0c3.4,0,6.8,0,10.3,0c3.2,0.1,4.7,1.6,4.7,4.7
		c0,17.4,0.1,34.9,0,52.3c0,7.1-5.2,12.1-12.3,12.2c-2.6,0.1-5.3,0.1-7.9,0c-1.6-0.1-2.3,0.4-2.8,2.1c-2.5,9.4-3.1,18.8-1.8,28.4
		c1.5,11.1,3.7,22.1,8.7,32.3c1.4,2.9,3.3,5.6,4.9,8.4c0.7,1.3,1.4,2.7,2,4.1c1.3,3.3-0.5,5.9-4.1,6c-6,0.1-11.9,0.1-17.9,0.1
		c-27.4,0.1-54.8,0.1-82.1,0.2c-4.2,0-4.9-0.6-6.2-4.7c-2.1-6.9-4.8-13.5-9-19.4c-0.5-0.7-1-1.4-1.6-2.1c-4.2-5-4.5-5-10.8-3
		c-8.8,2.7-17.7,5-26.5,7.9c-8.7,2.8-19-0.8-21.1-13.5c-0.6-3.7-0.2-7.6,0.3-11.3c0.6-4.4,0.4-5.5-3-7.5c-6.1-3.6-6.7-5.1-4.5-11.9
		c-1-0.8-2-1.7-3-2.5c-2.7-2.3-3.2-4.1-1.9-7.4c0.8-2,1.9-3.8,2.9-5.7c1.9-3.9,1.4-5.5-2.3-7.5c-2.2-1.2-4.5-2.4-6.6-3.8
		c-5.6-3.7-6.8-8.9-3.2-14.6c1.3-2.2,3-4.1,4.5-6.2c6.4-8.5,11.8-17.5,16.5-27c1-2,0.7-3.4-0.8-4.8c-0.5-0.5-1-1-1.6-1.5
		c-6.6-5.9-7.7-9.9-4.1-17.9c3.5-7.6,5.3-15.6,7.7-23.5c4.8-15.8,13.2-29.3,27.1-38.7c9.6-6.5,20.4-10,31.7-11.9
		c12.1-2.1,24.2-3.6,36.3-5.4c0.5-0.1,0.9-0.2,1.4-0.4c4.3,0,8.6,0,12.9,0c0.5,0.1,1.1,0.3,1.6,0.4c13.5,1.1,26.1,4.9,38,11.3
		c0.5,0.3,1.1,0.5,1.9,0.9c0-2.6,0.1-4.8,0-7.1c-0.2-2.5,0.7-4.3,2.9-5.5c18.8,0,37.6,0,56.4,0c5.2,1.5,8.6,4.8,10,10
		C298.5,50.3,298.5,69.1,298.5,87.9z M204.8,176.2c1,0,1.8,0.1,2.6,0.1c14.9,0,29.8,0,44.6,0c4.6,0,5.8-1.2,5.8-5.8
		c0-14.8,0-29.6,0-44.4c0-0.8-0.1-1.7-0.1-2.7c-1.1,0-2,0-2.8,0c-5.1,0-10.2,0.1-15.3,0c-3.5-0.1-5.2-3.1-3.6-6.2
		c0.3-0.6,0.7-1.2,1-1.9c1-2.6,0.1-5.4-2.2-7c-2.3-1.6-5.2-1.5-7.3,0.2c-2.5,2-2.9,5.1-1.1,8.3c1.9,3.5,0.2,6.5-3.7,6.5
		c-2.9,0.1-5.9,0-8.8,0c-2.9,0-5.8,0-9,0c0,1.2,0,2.1,0,2.9c0,4.9,0.1,9.9,0,14.8c-0.1,4.1-3.1,5.8-6.7,3.8
		c-0.3-0.2-0.5-0.3-0.8-0.5c-2.7-1.3-5.7-0.6-7.5,1.7c-1.7,2.1-1.7,5.4,0,7.5c1.8,2.2,4.9,2.9,7.5,1.6c0.6-0.3,1.1-0.7,1.7-0.9
		c2.4-1,5,0.2,5.6,2.7c0.2,0.8,0.2,1.7,0.2,2.6C204.8,165.1,204.8,170.6,204.8,176.2z M155.8,115.1c-0.1-9.1,5-15.3,12.9-16.1
		c3.5-0.4,6.8,0.6,9.7,2.6c4.6,3.3,6.2,8,6,13.4c4.2,0,8.1,0,11.9,0c0.1-0.3,0.2-0.3,0.2-0.4c0-5.7,0-11.5,0.1-17.2
		c0.1-4,3-5.6,6.5-3.8c1.3,0.6,2.8,1.1,4.3,1.1c2.6-0.1,4.4-1.7,5.2-4.2c0.8-2.5,0-4.6-1.8-6.2c-2.1-1.8-4.6-2-7.3-0.6
		c-4,2.1-6.8,0.5-6.8-4c0-4.5,0-9.1,0-13.6c0-1.2,0-2.5,0-3.7c-0.8-0.1-1.2-0.1-1.6-0.1c-15.5,0-31,0-46.5,0c-3.5,0-4.8,1.5-4.9,5
		c0,15.2,0,30.4,0,45.6c0,0.8,0,1.5,0,2.2C147.9,115.1,151.8,115.1,155.8,115.1z M196.5,164.3c-10.3-0.8-15.9-5.8-16.1-14.1
		c-0.2-8.4,5.1-13.3,16.1-14.8c0-3.9,0-7.8,0-12.1c-1,0-1.8,0-2.7,0c-5.1,0-10.2,0.1-15.3,0c-3.6-0.1-5.3-3.1-3.6-6.3
		c0.3-0.6,0.7-1.1,0.9-1.7c1-2.6,0.1-5.6-2.3-7.2c-2.4-1.6-5.4-1.4-7.5,0.6c-2.3,2.1-2.6,4.9-0.9,8c2,3.6,0.3,6.5-3.8,6.6
		c-1.9,0-3.8,0-5.7,0c-3.9,0-7.8,0-11.8,0c0,1-0.1,1.8-0.1,2.6c0,15,0,29.9,0,44.9c0,4.3,1.2,5.5,5.5,5.5c15,0,29.9,0,44.9,0
		c0.8,0,1.5,0,2.5,0C196.5,172.2,196.5,168.3,196.5,164.3z M278.1,82.5c4.1,0,8,0,12.2,0c0-0.8,0-1.5,0-2.2c0-15,0-30.1,0-45.1
		c0-4.2-1.3-5.5-5.6-5.5c-15,0-29.9,0-44.9,0c-0.8,0-1.5,0.1-2.3,0.1c0,4.2,0,8.2,0,12.2c9.2,0.2,15.3,5,16,12.6
		c0.4,3.7-0.5,7.1-2.7,10.1c-3.3,4.4-8,6-13.3,5.7c0,4.2,0,8.1,0,12.1c4.1,0,8.1,0,12.1,0c0.1-9.6,5.5-15.8,13.6-16.1
		C272,66.1,277.5,71.9,278.1,82.5z"/>
	<path class="st0" d="M127.7,53.2c-0.7,0.9-1.3,2.4-2.4,2.9c-14.9,6.9-21.5,19.8-25,34.8c-0.3,1.2-0.5,2.5-1,3.7
		c-0.7,1.9-2.6,2.9-4.6,2.4c-1.9-0.4-3.5-2.2-3.1-4.2c3.6-18.6,11.1-34.6,29.2-43.5c3-1.5,5.4-0.8,6.4,1.7
		C127.3,51.6,127.4,52.1,127.7,53.2z"/>
	<path class="st0" d="M90.5,103.1c2.3-0.1,4.1,1.6,4.1,4c0,2.3-1.8,4.1-4,4.1c-2.1,0-4-1.8-4.1-3.9C86.4,105,88.3,103.1,90.5,103.1z
		"/>
</g>
</svg>
